<svg width="41" height="61" viewBox="0 0 41 61" fill="none" xmlns="http://www.w3.org/2000/svg">
<path d="M1.92786 20.9734C1.92786 21.5089 1.95158 22.0375 1.99212 22.5624C2.06692 23.4535 2.20235 24.3241 2.39183 25.1746C2.65611 26.3569 3.0321 27.4954 3.50662 28.5796C3.95379 29.613 4.49256 30.5986 5.1091 31.5236C5.6001 32.2624 6.1425 32.9636 6.72839 33.624C6.87405 33.7867 7.02003 33.9459 7.16897 34.1018C7.65667 34.6201 8.17534 35.1045 8.71709 35.5586C8.85615 35.6772 8.99487 35.7926 9.13723 35.9043C9.81144 36.4427 10.5262 36.9377 11.2716 37.3779C11.5019 37.517 11.7392 37.6491 11.9764 37.778C13.8874 38.8077 15.9947 39.5192 18.2239 39.8411C19.1285 39.9766 20.0571 40.0444 20.9985 40.0444C21.9268 40.0444 22.8383 39.9766 23.7293 39.8477C25.979 39.5258 28.1031 38.811 30.0275 37.778C30.3426 37.6053 30.6543 37.4287 30.9558 37.2425C31.8742 36.68 32.7379 36.043 33.5442 35.3352C33.6326 35.2604 33.7238 35.1826 33.8085 35.1015C34.4116 34.5562 34.9806 33.97 35.5092 33.3501C35.6074 33.2348 35.7056 33.1198 35.8005 33.0011C36.5966 32.0221 37.2982 30.965 37.8907 29.8403C37.9484 29.7319 38.0024 29.6235 38.0568 29.5151C38.5175 28.597 38.9073 27.6348 39.219 26.6387C39.28 26.439 39.3376 26.2389 39.3917 26.0389C39.6764 25.0088 39.8764 23.9451 39.9812 22.8511C39.998 22.6682 40.0151 22.4853 40.0287 22.2988C40.0557 21.8615 40.0728 21.418 40.0728 20.9738C40.0728 20.7062 40.0659 20.4419 40.0557 20.1776C40.0524 20.0455 40.0455 19.917 40.0352 19.7848C39.9845 18.9208 39.8728 18.0703 39.7067 17.2406C39.6695 17.0541 39.6289 16.8679 39.5881 16.6847C39.4355 16.024 39.2493 15.3735 39.0289 14.7434C38.9511 14.5131 38.8664 14.2827 38.7781 14.059C38.5105 13.3644 38.1988 12.6901 37.8531 12.0397C37.5786 11.5213 37.2804 11.0165 36.9588 10.5288C36.7522 10.2105 36.5354 9.90203 36.3083 9.59722C36.0612 9.26176 35.8002 8.93652 35.529 8.62149C35.0548 8.06228 34.55 7.53405 34.0181 7.0424C33.8352 6.86973 33.6523 6.70365 33.4625 6.54119C32.7478 5.92135 31.9889 5.35523 31.1858 4.85072C30.915 4.67805 30.6405 4.51197 30.3594 4.3561C29.9527 4.12577 29.5362 3.90861 29.1091 3.70892C28.8449 3.5837 28.5773 3.46507 28.3061 3.35303C27.5067 3.02119 26.6835 2.74307 25.833 2.51966C25.4063 2.40795 24.9726 2.31304 24.532 2.23198C23.868 2.10676 23.1938 2.01515 22.5061 1.96078C22.1608 1.93376 21.8118 1.91662 21.4592 1.91003C21.3066 1.90674 21.1544 1.90344 20.9985 1.90344C20.6327 1.90344 20.2703 1.91366 19.9111 1.93409C19.6807 1.9476 19.4504 1.9644 19.2234 1.98484C18.2644 2.07315 17.3296 2.23231 16.4214 2.45935C16.2112 2.5101 16.0046 2.56447 15.7979 2.62214C14.7715 2.91344 13.7822 3.28613 12.8335 3.7366C12.5627 3.86544 12.298 3.99758 12.0338 4.13994C11.5391 4.40059 11.0617 4.6853 10.5941 4.99044C10.5127 5.04481 10.428 5.09886 10.3466 5.15323C9.69611 5.59348 9.06935 6.07458 8.47983 6.59326C8.08703 6.92871 7.71434 7.28427 7.35516 7.6573C6.79266 8.22968 6.26739 8.83634 5.78628 9.47661C5.68808 9.60183 5.59318 9.72738 5.50552 9.85589C5.03101 10.5133 4.60098 11.1974 4.21444 11.9125C4.14326 12.0413 4.07571 12.1735 4.01145 12.302C3.37777 13.5387 2.87656 14.8499 2.52397 16.222C2.34438 16.9199 2.20532 17.6314 2.10712 18.3563C1.98849 19.2118 1.92786 20.086 1.92786 20.9734Z" fill="#141720"/>
<path d="M32.6769 33.8649C32.6769 33.8817 32.6769 33.8988 32.6802 33.9156C32.697 34.5289 33.0394 35.0574 33.5442 35.3352C33.6088 35.3724 33.6731 35.4064 33.7443 35.4301C33.9341 35.5082 34.144 35.5487 34.3608 35.5487C35.2891 35.5487 36.0414 34.7935 36.0414 33.8649C36.0414 33.7057 36.0177 33.5498 35.9771 33.4009C35.9363 33.2585 35.8753 33.1231 35.8008 33.0012C35.5095 32.5135 34.974 32.1846 34.3608 32.1846C34.2086 32.1846 34.0626 32.205 33.9238 32.2423C33.707 32.2963 33.5106 32.3945 33.3409 32.5266C33.1953 32.6384 33.07 32.7705 32.9649 32.9231C32.782 33.1906 32.6769 33.5159 32.6769 33.8649Z" fill="#141720"/>
<path d="M37.288 15.7291C37.288 16.0543 37.3829 16.3595 37.5457 16.6168C37.8406 17.0946 38.3689 17.4097 38.9719 17.4097C39.2362 17.4097 39.4836 17.3487 39.7071 17.2403C39.829 17.1826 39.9407 17.1081 40.0425 17.0267C40.4152 16.7183 40.6525 16.251 40.6525 15.7291C40.6525 14.9771 40.1611 14.3434 39.4869 14.1266C39.3241 14.0722 39.1515 14.0452 38.9719 14.0452C38.9076 14.0452 38.843 14.0488 38.7788 14.059C38.0268 14.1404 37.4271 14.7197 37.3117 15.4615C37.2949 15.5495 37.288 15.6375 37.288 15.7291Z" fill="#141720"/>
<path d="M27.8626 4.49125C27.8626 4.85703 27.9812 5.1994 28.1779 5.47357C28.4083 5.79552 28.754 6.03245 29.15 6.12735C29.2756 6.158 29.4077 6.1748 29.5432 6.1748C30.3495 6.1748 31.0237 5.60901 31.1862 4.85011C31.2132 4.73477 31.2271 4.61285 31.2271 4.49092C31.2271 4.34198 31.2066 4.19962 31.1694 4.06419C30.9829 3.34252 30.3225 2.81067 29.5432 2.81067C29.3636 2.81067 29.1942 2.83769 29.0317 2.88877C28.7507 2.98005 28.5032 3.13954 28.3065 3.35274C28.032 3.65096 27.8626 4.05068 27.8626 4.49125Z" fill="#141720"/>
<path d="M12.0259 6.89444C11.097 6.89444 10.344 6.14143 10.344 5.21254C10.344 4.28365 11.097 3.53064 12.0259 3.53064C12.9548 3.53064 13.7078 4.28365 13.7078 5.21254C13.7078 6.14143 12.9548 6.89444 12.0259 6.89444Z" fill="#141720"/>
<path d="M37.6337 21.3023C37.6337 21.5159 37.6745 21.7225 37.749 21.9086C37.9929 22.5387 38.6028 22.9862 39.3175 22.9862C39.5548 22.9862 39.7786 22.9387 39.9815 22.8508C40.1206 22.7898 40.2491 22.7084 40.3677 22.6171C40.7507 22.3087 40.9978 21.8345 40.9978 21.3027C40.9978 20.7299 40.7131 20.2251 40.2761 19.9203C40.2017 19.8695 40.1203 19.8221 40.0356 19.7849C39.8188 19.6797 39.5749 19.6221 39.3172 19.6221C38.6058 19.6221 37.9958 20.0623 37.752 20.6861C37.6742 20.8753 37.6337 21.0852 37.6337 21.3023Z" fill="#141720"/>
<path d="M8.12297 36.248C7.19408 36.248 6.44107 35.495 6.44107 34.5661C6.44107 33.6372 7.19408 32.8842 8.12297 32.8842C9.05186 32.8842 9.80487 33.6372 9.80487 34.5661C9.80487 35.495 9.05186 36.248 8.12297 36.248Z" fill="#141720"/>
<path d="M6.39293 34.2913C5.46404 34.2913 4.71103 33.5382 4.71103 32.6094C4.71103 31.6805 5.46404 30.9275 6.39293 30.9275C7.32182 30.9275 8.07483 31.6805 8.07483 32.6094C8.07483 33.5382 7.32182 34.2913 6.39293 34.2913Z" fill="#141720"/>
<path d="M10.3456 37.6551C9.41673 37.6551 8.66372 36.902 8.66372 35.9732C8.66372 35.0443 9.41673 34.2913 10.3456 34.2913C11.2745 34.2913 12.0275 35.0443 12.0275 35.9732C12.0275 36.902 11.2745 37.6551 10.3456 37.6551Z" fill="#141720"/>
<path d="M19.1861 2.33974C19.1861 2.9665 19.5282 3.51219 20.0366 3.8002C20.2838 3.94255 20.5685 4.02362 20.87 4.02362C20.9142 4.02362 20.9547 4.02362 20.9989 4.0167C21.3277 3.99297 21.6292 3.87434 21.8764 3.68486C22.2863 3.38005 22.5506 2.88873 22.5506 2.33974C22.5506 2.2076 22.5371 2.08238 22.5064 1.96045C22.4185 1.56733 22.1881 1.22858 21.8764 0.998238C21.6292 0.808431 21.3277 0.689801 20.9989 0.666405C20.9547 0.659485 20.9142 0.659485 20.87 0.659485C20.294 0.659485 19.7859 0.947491 19.4843 1.38774C19.3624 1.56403 19.2708 1.76735 19.2234 1.98418C19.1996 2.09918 19.1861 2.21781 19.1861 2.33974Z" fill="#141720"/>
<path d="M4.71104 12.4526C3.78215 12.4526 3.02914 11.6996 3.02914 10.7707C3.02914 9.84182 3.78215 9.08881 4.71104 9.08881C5.63993 9.08881 6.39294 9.84182 6.39294 10.7707C6.39294 11.6996 5.63993 12.4526 4.71104 12.4526Z" fill="#141720"/>
<path d="M33.5443 30.9275C33.5443 31.202 33.5884 31.4626 33.6731 31.7101C33.7341 31.8999 33.8187 32.0759 33.9239 32.2419C34.2728 32.8008 34.8419 33.2107 35.5095 33.3498C35.6585 33.3834 35.818 33.4006 35.9771 33.4006C35.9906 33.4038 36.0075 33.4038 36.021 33.4038C37.3898 33.4038 38.501 32.296 38.501 30.9271C38.501 30.5238 38.4028 30.1409 38.2331 29.8058C38.1823 29.7039 38.1247 29.6061 38.0568 29.5145C37.6096 28.8706 36.8642 28.4474 36.0206 28.4474C35.9495 28.4474 35.8783 28.4507 35.8074 28.4577C35.296 28.5015 34.8281 28.7015 34.4524 29.0099C33.8965 29.4637 33.5443 30.1551 33.5443 30.9275Z" fill="#141720"/>
<path d="M28.8722 34.8001C28.8722 35.8908 29.5768 36.8161 30.5561 37.1446C30.685 37.1888 30.8168 37.2224 30.9558 37.2428C31.0847 37.2666 31.2168 37.2768 31.3523 37.2768C32.5043 37.2768 33.4698 36.4941 33.7443 35.4304C33.7746 35.3256 33.7987 35.2136 33.8085 35.1019C33.8221 35.0037 33.829 34.9019 33.829 34.8004C33.829 34.116 33.5512 33.4994 33.1073 33.0523C33.0599 33.0048 33.0124 32.9606 32.965 32.9234C32.5313 32.5438 31.9688 32.3204 31.3523 32.3204C29.9834 32.32 28.8722 33.4312 28.8722 34.8001Z" fill="#141720"/>
<path d="M34.8113 12.9814C34.8113 14.3503 35.9191 15.4615 37.288 15.4615H37.3117C37.979 15.4545 38.5857 15.1837 39.0292 14.7431C39.2124 14.5668 39.368 14.3569 39.4866 14.1265C39.6662 13.7842 39.768 13.3947 39.768 12.9814C39.768 11.955 39.1412 11.0742 38.2502 10.7015C37.9556 10.5726 37.63 10.5051 37.288 10.5051C37.1763 10.5051 37.0679 10.512 36.9595 10.5288C35.8618 10.6711 34.9945 11.5315 34.8419 12.6259C34.8215 12.7409 34.8113 12.8595 34.8113 12.9814Z" fill="#141720"/>
<path d="M14.5045 6.50104C13.1358 6.50104 12.0262 5.39144 12.0262 4.02268C12.0262 2.65391 13.1358 1.54431 14.5045 1.54431C15.8733 1.54431 16.9829 2.65391 16.9829 4.02268C16.9829 5.39144 15.8733 6.50104 14.5045 6.50104Z" fill="#141720"/>
<path d="M24.163 3.52903C24.163 3.84735 24.2239 4.15249 24.3356 4.43357C24.6948 5.35493 25.5924 6.00904 26.643 6.00904C27.2223 6.00904 27.7578 5.80902 28.1779 5.47356C28.7098 5.05671 29.062 4.42665 29.1095 3.70862C29.1164 3.65095 29.1197 3.58999 29.1197 3.52903C29.1197 3.3089 29.0894 3.09207 29.0317 2.88876C28.7539 1.83164 27.7917 1.05231 26.6433 1.05231C26.2604 1.05231 25.8979 1.14062 25.576 1.29616C25.1423 1.49947 24.7798 1.82472 24.5324 2.23135C24.2984 2.60734 24.163 3.05121 24.163 3.52903Z" fill="#141720"/>
<path d="M36.041 24.2635C36.041 24.853 36.2476 25.395 36.5933 25.8185C37.0473 26.3807 37.7417 26.7398 38.521 26.7398C38.7615 26.7398 38.9988 26.7059 39.2189 26.638C39.3916 26.5906 39.561 26.5197 39.7168 26.4314C40.479 26.0113 40.9974 25.1983 40.9974 24.2631C40.9974 23.6298 40.7601 23.0534 40.3673 22.6165C40.2691 22.4979 40.1538 22.3894 40.0286 22.2982C39.6117 21.9729 39.0868 21.7831 38.521 21.7831C38.2501 21.7831 37.9924 21.8273 37.7486 21.9083C36.7593 22.2306 36.041 23.1658 36.041 24.2635Z" fill="#141720"/>
<path d="M7.82181 11.4581C6.45305 11.4581 5.34344 10.3485 5.34344 8.97971C5.34344 7.61095 6.45305 6.50134 7.82181 6.50134C9.19057 6.50134 10.3002 7.61095 10.3002 8.97971C10.3002 10.3485 9.19057 11.4581 7.82181 11.4581Z" fill="#141720"/>
<path d="M4.18214 16.8633C2.81319 16.8633 1.70345 15.7535 1.70345 14.3846C1.70345 13.0156 2.81319 11.9059 4.18214 11.9059C5.55108 11.9059 6.66083 13.0156 6.66083 14.3846C6.66083 15.7535 5.55108 16.8633 4.18214 16.8633Z" fill="#141720"/>
<path d="M29.1197 6.50003C29.1197 7.86889 30.2308 8.98005 31.5997 8.98005C31.7997 8.98005 31.9928 8.95632 32.179 8.90887C33.0938 8.69204 33.8121 7.96379 34.0187 7.0421C34.0596 6.86943 34.0797 6.68622 34.0797 6.50003C34.0797 6.45621 34.0797 6.41205 34.0728 6.36789C34.0085 5.06033 32.9244 4.02332 31.5997 4.02332C31.454 4.02332 31.3084 4.03683 31.1693 4.06385C30.878 4.1113 30.6035 4.21312 30.3597 4.35515C29.7194 4.72455 29.262 5.36811 29.15 6.12701C29.1296 6.24959 29.1197 6.37152 29.1197 6.50003Z" fill="#141720"/>
<path d="M35.6483 27.6309C35.6483 27.9222 35.7056 28.2033 35.8074 28.4577C36.136 29.2673 36.9324 29.84 37.8604 29.84H37.8907C38.0093 29.8367 38.121 29.8265 38.2331 29.8061C39.2767 29.6298 40.0728 28.722 40.0728 27.6309C40.0728 27.187 39.944 26.7771 39.7169 26.4314C39.6253 26.2891 39.5169 26.1573 39.3917 26.0383C38.9953 25.6521 38.4568 25.4185 37.8604 25.4185C37.3895 25.4185 36.9525 25.5677 36.5933 25.8182C36.0206 26.2182 35.6483 26.8789 35.6483 27.6309Z" fill="#141720"/>
<path d="M33.829 10.769C33.829 11.5483 34.2323 12.2324 34.8419 12.6256C35.1876 12.8526 35.6008 12.9811 36.0414 12.9811C36.7901 12.9811 37.4508 12.6084 37.8541 12.0393C38.1049 11.6802 38.2538 11.2399 38.2538 10.769C38.2538 10.7453 38.2538 10.7249 38.2506 10.7011C38.2232 9.69147 37.5118 8.85447 36.5667 8.62446C36.4006 8.58031 36.2243 8.55988 36.0414 8.55988C35.8651 8.55988 35.6924 8.58031 35.5297 8.62117C34.5744 8.84788 33.8596 9.6918 33.8323 10.7048C33.829 10.7249 33.829 10.7486 33.829 10.769Z" fill="#141720"/>
<path d="M17.9755 5.21258C16.7543 5.21258 15.7644 4.22263 15.7644 3.00146C15.7644 1.7803 16.7543 0.790344 17.9755 0.790344C19.1966 0.790344 20.1866 1.7803 20.1866 3.00146C20.1866 4.22263 19.1966 5.21258 17.9755 5.21258Z" fill="#141720"/>
<path d="M36.2885 18.6055C36.2885 18.9749 36.3765 19.3202 36.5357 19.6254C36.7897 20.1167 37.2234 20.4996 37.752 20.6858C37.9856 20.7705 38.2397 20.8179 38.5006 20.8179C39.107 20.8179 39.656 20.5741 40.0557 20.1776C40.1371 20.0966 40.2115 20.0116 40.2761 19.9203C40.5506 19.5545 40.7098 19.1004 40.7098 18.6058C40.7098 17.986 40.4557 17.4268 40.0425 17.0271C39.9071 16.8916 39.7545 16.7763 39.5887 16.6847C39.2668 16.5018 38.8974 16.3967 38.5013 16.3967C38.1589 16.3967 37.834 16.4744 37.546 16.6168C37.2343 16.7624 36.9631 16.9793 36.7532 17.2505C36.4612 17.6228 36.2885 18.0937 36.2885 18.6055Z" fill="#141720"/>
<path d="M2.72598 22.689C1.50499 22.689 0.515186 21.6992 0.515186 20.4782C0.515186 19.2572 1.50499 18.2674 2.72598 18.2674C3.94696 18.2674 4.93677 19.2572 4.93677 20.4782C4.93677 21.6992 3.94696 22.689 2.72598 22.689Z" fill="#141720"/>
<path d="M4.18215 28.6837C2.96117 28.6837 1.97136 27.6939 1.97136 26.4729C1.97136 25.2519 2.96117 24.2621 4.18215 24.2621C5.40314 24.2621 6.39294 25.2519 6.39294 26.4729C6.39294 27.6939 5.40314 28.6837 4.18215 28.6837Z" fill="#141720"/>
<path d="M32.1484 8.55991C32.1484 8.67854 32.1586 8.79717 32.179 8.90888C32.3144 9.7897 32.9751 10.4946 33.8322 10.7045C34.0016 10.7486 34.1779 10.7687 34.3608 10.7687C35.2044 10.7687 35.9396 10.2942 36.309 9.5966C36.4681 9.3053 36.5597 8.97643 36.5667 8.62417C36.5699 8.60374 36.5699 8.58001 36.5699 8.55958C36.5699 7.33671 35.5807 6.34747 34.3608 6.34747C34.2626 6.34747 34.1677 6.35439 34.0728 6.3679C33.8596 6.39525 33.6527 6.45259 33.4628 6.54058C32.6871 6.87966 32.1484 7.65569 32.1484 8.55991Z" fill="#141720"/>
<path d="M9.41766 9.06933C8.1965 9.06933 7.20655 8.07938 7.20655 6.85821C7.20655 5.63705 8.1965 4.64709 9.41766 4.64709C10.6388 4.64709 11.6288 5.63705 11.6288 6.85821C11.6288 8.07938 10.6388 9.06933 9.41766 9.06933Z" fill="#141720"/>
<path d="M21.4187 2.33976C21.4187 2.84459 21.588 3.31219 21.876 3.68488C22.2794 4.21344 22.9127 4.5522 23.6275 4.5522C23.8749 4.5522 24.1152 4.51133 24.3356 4.43357C25.1588 4.15907 25.7618 3.41368 25.833 2.51935C25.8366 2.45839 25.8399 2.40072 25.8399 2.33976C25.8399 1.96377 25.745 1.60788 25.5756 1.29615C25.2062 0.601837 24.4711 0.130615 23.6275 0.130615C22.9127 0.130615 22.2791 0.469368 21.876 0.997928C21.6727 1.25891 21.5271 1.57064 21.4592 1.9094C21.4322 2.04846 21.4187 2.19081 21.4187 2.33976Z" fill="#141720"/>
<path d="M3.02881 64.1229V64.1265H38.9719V64.1229C38.9719 59.1392 36.9459 54.6332 33.6662 51.3808C33.5442 51.2589 33.4223 51.1402 33.2968 51.0216C32.7956 50.554 32.2703 50.1134 31.7213 49.7038C31.5519 49.5783 31.3793 49.4527 31.2063 49.3344C30.8504 49.0906 30.4846 48.857 30.1119 48.6401C29.9356 48.535 29.756 48.4332 29.5764 48.335C29.5731 48.3281 29.5662 48.3281 29.5662 48.3281C29.4205 48.2503 29.2782 48.1656 29.1358 48.0773C29.0274 48.0163 28.9226 47.9521 28.8208 47.8806C28.5091 47.6806 28.2043 47.4637 27.9163 47.2337V47.2301C26.2798 45.9258 25.0128 44.181 24.2944 42.1719C24.0269 41.4298 23.8371 40.6504 23.7286 39.8474C23.6644 39.3528 23.6304 38.8483 23.6304 38.3365L20.9979 38.35L18.3182 38.3635C18.3182 38.8651 18.2842 39.3564 18.2233 39.8405C18.1185 40.6402 17.932 41.4192 17.671 42.1577C16.9562 44.1701 15.6958 45.9219 14.063 47.2364C13.9411 47.3313 13.8191 47.4262 13.6936 47.5178C13.6936 47.5178 13.6903 47.5178 13.6867 47.5214C13.5918 47.5959 13.4936 47.6637 13.395 47.728C13.368 47.7514 13.3377 47.7722 13.3071 47.789C13.28 47.8094 13.2563 47.8262 13.2293 47.8433C13.2191 47.8503 13.2089 47.8569 13.1986 47.8638C13.0869 47.9382 12.9716 48.0094 12.8566 48.0806C12.7175 48.1653 12.5755 48.25 12.4332 48.3277C12.4094 48.3347 12.389 48.3449 12.3719 48.3584C12.2127 48.4467 12.0532 48.538 11.8977 48.6329C11.6911 48.7512 11.4877 48.8767 11.2877 49.0056C10.9322 49.2359 10.5898 49.4732 10.251 49.7305H10.2441C9.56002 50.242 8.91282 50.8012 8.30979 51.4042C5.04485 54.657 3.02881 59.1494 3.02881 64.1229Z" fill="#B08874"/>
<path d="M3.02881 64.1229H38.9719C38.9719 59.1392 36.9459 54.6332 33.6662 51.3808C33.5442 51.2589 33.4223 51.1403 33.2968 51.0216C32.7956 50.554 32.2703 50.1135 31.7213 49.7039C31.5519 49.5783 31.3793 49.4528 31.2063 49.3345C30.8504 49.0906 30.4879 48.857 30.1155 48.6365C29.9392 48.5317 29.7596 48.4299 29.58 48.3317C29.5731 48.3248 29.5665 48.3281 29.5665 48.3281V48.3248C29.2785 48.1656 28.9941 47.9926 28.7196 47.8097C28.5908 47.7251 28.4656 47.6371 28.3404 47.5422C28.3269 47.5356 28.3166 47.525 28.3031 47.5184C28.2118 47.4506 28.1202 47.3794 28.0286 47.3052C27.9947 47.2779 27.9607 47.2509 27.9268 47.2238H27.9235C27.9202 47.2275 27.9202 47.2275 27.9166 47.2304C27.6998 47.4542 27.4694 47.6641 27.2322 47.8674C27.2322 47.871 27.2322 47.871 27.2289 47.871C26.6291 48.3759 25.9684 48.8095 25.257 49.1585C23.9765 49.7885 22.5364 50.1441 21.012 50.1477H20.9847C18.2743 50.1477 15.8246 49.0293 14.0633 47.2374L14.0597 47.2341L14.0564 47.2304C13.9308 47.3352 13.8023 47.4338 13.6699 47.532C13.5819 47.5998 13.4903 47.6641 13.3954 47.7287C13.3683 47.7491 13.338 47.7692 13.3074 47.7896C13.2804 47.8101 13.2566 47.8269 13.2296 47.844C13.2194 47.8509 13.2092 47.8575 13.199 47.8644C13.0873 47.9389 12.9719 48.0101 12.8569 48.0813C12.7179 48.166 12.5758 48.247 12.4335 48.3251C12.4098 48.332 12.3926 48.3455 12.3722 48.3554C12.213 48.4437 12.0502 48.535 11.8947 48.6299C11.6878 48.7519 11.4848 48.8774 11.288 49.0063C10.9325 49.233 10.5901 49.4738 10.2514 49.7276H10.2444C9.56035 50.2393 8.91315 50.8018 8.31012 51.4049C5.04485 54.657 3.02881 59.1494 3.02881 64.1229Z" fill="#EFC7A1"/>
<path d="M11.8954 48.6296L11.8987 48.6332L12.2681 49.0092C14.5922 51.3772 17.6921 52.6785 20.9988 52.6821C21.0021 52.6821 21.0021 52.6821 21.0058 52.6821C24.3498 52.6752 27.4464 51.3676 29.7603 49.0026L30.1126 48.6401L30.1158 48.6365C29.9395 48.5317 29.76 48.4299 29.5804 48.3317C29.5734 48.3248 29.5669 48.3281 29.5669 48.3281V48.3248C29.4212 48.2434 29.2788 48.162 29.1365 48.0773C29.0317 48.0131 28.9266 47.9485 28.8215 47.8806C28.7875 47.8572 28.7536 47.8331 28.7196 47.8094C28.5908 47.7247 28.4623 47.6367 28.3404 47.5418C28.3268 47.5352 28.3166 47.5247 28.3031 47.5181C28.2118 47.4469 28.1169 47.3758 28.0286 47.3049C27.9947 47.2776 27.9607 47.2505 27.9268 47.2235C27.9235 47.2271 27.9235 47.2271 27.9202 47.2301H27.9169V47.2337C27.7001 47.4571 27.473 47.6671 27.2325 47.8671C27.2325 47.8707 27.2325 47.8707 27.2292 47.8707C26.6295 48.3755 25.9688 48.8125 25.2573 49.1582C23.9768 49.7882 22.5367 50.1438 21.0124 50.1474H20.985C18.2747 50.1474 15.825 49.029 14.0636 47.237L14.06 47.2337L14.0567 47.2301C13.9381 47.3283 13.8195 47.4232 13.6939 47.5181C13.6939 47.5181 13.6906 47.5181 13.687 47.5217C13.6834 47.525 13.6768 47.5283 13.6699 47.5316C13.5819 47.5995 13.4903 47.6638 13.3954 47.7283C13.3683 47.7488 13.338 47.7689 13.3074 47.7893C13.2804 47.8097 13.2566 47.8265 13.2296 47.8437C13.2194 47.8506 13.2092 47.8572 13.199 47.8641C13.0873 47.9386 12.9719 48.0098 12.8569 48.0809C12.7179 48.1656 12.5758 48.2467 12.4335 48.3248C12.4097 48.3317 12.3926 48.3452 12.3722 48.3551C12.2134 48.4434 12.0509 48.5347 11.8954 48.6296Z" fill="#543E36"/>
<path d="M7.2062 17.5892V25.6659C7.2062 26.4248 7.26025 27.1735 7.36207 27.9087C7.60954 29.7382 8.15491 31.4764 8.90689 33.0786C9.12701 33.5495 9.36427 34.0105 9.61833 34.4577C9.676 34.5595 9.73367 34.661 9.79133 34.7592C10.3064 35.6265 10.8788 36.4464 11.492 37.202C11.6479 37.3987 11.8103 37.5918 11.9764 37.778C13.7143 39.7736 15.7337 41.2947 17.6716 42.1584C18.8335 42.6734 19.972 42.9548 20.9985 42.9548C22.0184 42.9548 23.1431 42.6803 24.2951 42.1722C26.2433 41.3115 28.2761 39.7835 30.0275 37.778C30.2071 37.571 30.3834 37.3611 30.5561 37.1443C31.3453 36.162 32.067 35.0778 32.6802 33.9156C32.8295 33.6309 32.9715 33.3432 33.107 33.0516C33.1883 32.8789 33.2661 32.7026 33.3406 32.5263C33.4592 32.2587 33.5676 31.9842 33.6728 31.7097C33.998 30.8424 34.2623 29.9379 34.4521 29.0096C34.5266 28.6471 34.5908 28.281 34.6383 27.9083C34.7401 27.1732 34.7941 26.4245 34.7941 25.6656V17.5889H7.2062V17.5892Z" fill="#B08874"/>
<path d="M35.1319 27.9779C34.1196 27.9779 33.2991 27.1573 33.2991 26.145V17.3447H35.1319V27.9779Z" fill="#141720"/>
<path d="M8.70032 17.3447H6.86782V27.9782C7.87979 27.9782 8.70032 27.1577 8.70032 26.1454V17.3447Z" fill="#141720"/>
<path d="M24.4315 20.1216C23.2103 20.1216 22.2204 19.1317 22.2204 17.9105C22.2204 16.6894 23.2103 15.6994 24.4315 15.6994C25.6527 15.6994 26.6426 16.6894 26.6426 17.9105C26.6426 19.1317 25.6527 20.1216 24.4315 20.1216Z" fill="#141720"/>
<path d="M29.5441 19.6211C28.323 19.6211 27.333 18.6311 27.333 17.41C27.333 16.1888 28.323 15.1989 29.5441 15.1989C30.7653 15.1989 31.7552 16.1888 31.7552 17.41C31.7552 18.6311 30.7653 19.6211 29.5441 19.6211Z" fill="#141720"/>
<path d="M34.7932 20.4785C33.572 20.4785 32.582 19.4886 32.582 18.2674C32.582 17.0462 33.572 16.0563 34.7932 16.0563C36.0143 16.0563 37.0043 17.0462 37.0043 18.2674C37.0043 19.4886 36.0143 20.4785 34.7932 20.4785Z" fill="#141720"/>
<path d="M17.9755 19.8824C16.7543 19.8824 15.7644 18.8925 15.7644 17.6713C15.7644 16.4501 16.7543 15.4602 17.9755 15.4602C19.1966 15.4602 20.1866 16.4501 20.1866 17.6713C20.1866 18.8925 19.1966 19.8824 17.9755 19.8824Z" fill="#141720"/>
<path d="M11.29 19.8824C10.0689 19.8824 9.07891 18.8925 9.07891 17.6713C9.07891 16.4501 10.0689 15.4602 11.29 15.4602C12.5112 15.4602 13.5012 16.4501 13.5012 17.6713C13.5012 18.8925 12.5112 19.8824 11.29 19.8824Z" fill="#141720"/>
<path d="M6.70272 21.9769C5.48174 21.9769 4.49194 20.9871 4.49194 19.7661C4.49194 18.5451 5.48174 17.5553 6.70272 17.5553C7.92371 17.5553 8.91351 18.5451 8.91351 19.7661C8.91351 20.9871 7.92371 21.9769 6.70272 21.9769Z" fill="#141720"/>
<path d="M20.9999 19.7588C20.071 19.7588 19.318 19.0058 19.318 18.0769C19.318 17.148 20.071 16.395 20.9999 16.395C21.9288 16.395 22.6818 17.148 22.6818 18.0769C22.6818 19.0058 21.9288 19.7588 20.9999 19.7588Z" fill="#141720"/>
<path d="M32.3965 19.5924C31.4676 19.5924 30.7146 18.8394 30.7146 17.9105C30.7146 16.9817 31.4676 16.2286 32.3965 16.2286C33.3254 16.2286 34.0784 16.9817 34.0784 17.9105C34.0784 18.8394 33.3254 19.5924 32.3965 19.5924Z" fill="#141720"/>
<path d="M26.6427 19.5924C25.7138 19.5924 24.9608 18.8394 24.9608 17.9105C24.9608 16.9817 25.7138 16.2286 26.6427 16.2286C27.5716 16.2286 28.3246 16.9817 28.3246 17.9105C28.3246 18.8394 27.5716 19.5924 26.6427 19.5924Z" fill="#141720"/>
<path d="M14.5046 20.1213C13.5757 20.1213 12.8227 19.3683 12.8227 18.4394C12.8227 17.5105 13.5757 16.7575 14.5046 16.7575C15.4335 16.7575 16.1865 17.5105 16.1865 18.4394C16.1865 19.3683 15.4335 20.1213 14.5046 20.1213Z" fill="#141720"/>
<path d="M9.0789 20.1213C8.15001 20.1213 7.397 19.3683 7.397 18.4394C7.397 17.5105 8.15001 16.7575 9.0789 16.7575C10.0078 16.7575 10.7608 17.5105 10.7608 18.4394C10.7608 19.3683 10.0078 20.1213 9.0789 20.1213Z" fill="#141720"/>
<path d="M9.39132 21.7686C9.39132 21.7146 9.43218 21.6671 9.48622 21.6602C9.95382 21.589 12.0509 21.301 14.3039 21.301C16.865 21.301 20.1685 22.1037 20.7445 22.1037H21.2562C21.5238 22.1037 22.3842 21.9274 23.4855 21.7446C24.7492 21.5314 26.3283 21.3007 27.6935 21.3007C29.3435 21.3007 30.9123 21.4566 31.8133 21.565C32.1451 21.6058 32.3856 21.6394 32.5112 21.6599C32.5689 21.6668 32.6094 21.7142 32.6094 21.7683L32.6364 23.1437C32.6364 23.1945 32.6061 23.2353 32.5619 23.2554L32.4061 23.3098C32.1757 23.3978 32.1958 27.5413 30.9591 28.578C30.224 29.1879 29.5702 29.5369 26.8193 29.5369C25.2234 29.5369 24.2206 29.1065 23.2686 27.8227C22.5809 26.9013 21.9743 24.7192 21.9743 24.7192C21.7881 23.8212 21.1205 23.7501 21.0124 23.7435C21.0055 23.7435 20.9985 23.7435 20.9985 23.7435C20.9781 23.7435 20.2228 23.757 20.0261 24.7192C20.0261 24.7192 19.4162 26.901 18.7317 27.8227C17.7797 29.1065 16.777 29.5369 15.1814 29.5369C12.4302 29.5369 11.7764 29.1879 11.0416 28.578C9.80488 27.5413 9.8253 23.3978 9.59464 23.3098L9.43877 23.2554C9.39462 23.235 9.3643 23.1945 9.3643 23.1437L9.39132 21.7686Z" fill="#1A1A1A"/>
</svg>
